<svg id="Layer_1" data-name="Layer 1" xmlns="http://www.w3.org/2000/svg" viewBox="0 0 375.11 97.65"><defs><style>.cls-1,.cls-2,.cls-3,.cls-4{fill:none;stroke-miterlimit:10;}.cls-1,.cls-2{stroke:#264653;}.cls-1,.cls-3{stroke-width:2.5px;}.cls-2{stroke-width:2px;}.cls-3{stroke:#2a9d8f;}.cls-4{stroke:#e76f51;stroke-width:5px;}.cls-5{fill:#264653;}</style></defs><title>coaux-logo</title><path class="cls-1" d="M109.87,146.61a3.62,3.62,0,0,1-5.41.25L81.56,124.1a4.45,4.45,0,0,1-.27-5.89l2.24-2.68a3.62,3.62,0,0,1,5.41-.25L111.84,138a4.45,4.45,0,0,1,.27,5.89Z" transform="translate(-58.62 -93.62)"/><path class="cls-2" d="M111.77,150.23a1.76,1.76,0,0,1-2.63.2,2.16,2.16,0,0,1-.06-2.87l3.33-4a1.76,1.76,0,0,1,2.63-.19,2.17,2.17,0,0,1,.07,2.87Z" transform="translate(-58.62 -93.62)"/><path class="cls-1" d="M80.5,119.16a1.76,1.76,0,0,1-2.63.19,2.18,2.18,0,0,1-.07-2.87l3.34-4a1.76,1.76,0,0,1,2.63-.19,2.16,2.16,0,0,1,.06,2.87Z" transform="translate(-58.62 -93.62)"/><line class="cls-3" x1="16.93" y1="13.74" x2="13.98" y2="17.27"/><line class="cls-3" x1="12.07" y1="8.92" x2="9.12" y2="12.45"/><line class="cls-3" x1="7.17" y1="2.97" x2="3.24" y2="7.67"/><path class="cls-4" d="M116,150s36,43,79.12,26,46.22-87,108.1-53S362,154,362,154" transform="translate(-58.62 -93.62)"/><path class="cls-5" d="M265.64,169.83h-8.3a8.72,8.72,0,0,1-.43-2.36q-2.31,3-8.16,3-4.38,0-6.72-2.31a7.09,7.09,0,0,1-2.07-5.32,6.57,6.57,0,0,1,4-6.44,38.63,38.63,0,0,1,7.1-1.77l5.66-1.06v-1.49c-.06-1.82-1.33-2.73-3.79-2.73a5,5,0,0,0-2.95.69,3.75,3.75,0,0,0-1.23,2.48h-7.72q.42-8.31,12-8.31,6.14,0,9.21,2.21a5.8,5.8,0,0,1,2,2.47,12.29,12.29,0,0,1,.53,4.15c0,.32,0,1.32,0,3v.53l-.05,4.13V163c0,.39,0,1,0,1.83v1.05A6.51,6.51,0,0,0,265.64,169.83Zm-8.78-11.38-3.74.82a12.27,12.27,0,0,0-3.89,1.34,2.3,2.3,0,0,0-1,2c0,2,1.1,2.93,3.31,2.93a5.16,5.16,0,0,0,4.32-2,5.41,5.41,0,0,0,.91-3.35Z" transform="translate(-58.62 -93.62)"/><path class="cls-5" d="M294.44,144.91v24.92h-8.21v-3.37c-1.56,2.69-4.16,4-7.77,4q-4.75,0-7.15-3.12-1.68-2.16-1.68-6.87v-15.6h8.16v13.3c0,2.14.2,3.52.62,4.13a3.59,3.59,0,0,0,3.26,1.49,4.19,4.19,0,0,0,4-2.36,10.53,10.53,0,0,0,.52-4V144.91Z" transform="translate(-58.62 -93.62)"/><path class="cls-5" d="M322,144.91l-7.87,11.71L323,169.83h-9l-2.69-4.18a37.12,37.12,0,0,1-1.59-3.36,28.59,28.59,0,0,1-1.82,3.41l-2.54,4.13h-9l8.74-13.21-7.92-11.71h9l1.92,3.12a27.91,27.91,0,0,1,1.58,3c.87-1.63,1.46-2.72,1.78-3.27l1.73-2.88Z" transform="translate(-58.62 -93.62)"/><path class="cls-5" d="M173.85,151.63a11.47,11.47,0,0,1-4.42,8.07,13.09,13.09,0,0,1-8.06,2.4q-6.35,0-10-4a12.73,12.73,0,0,1-3.17-8.88q0-6.48,4.08-10.12a13.15,13.15,0,0,1,9.12-3.22q5.63,0,9,3a9.54,9.54,0,0,1,3.26,6.72h-7.92q-.61-3.75-4.17-3.75-5,0-5,7.35,0,6.86,4.89,6.86,3.9,0,4.56-4.37Z" transform="translate(-58.62 -93.62)"/><path class="cls-5" d="M189.64,162.1a12.76,12.76,0,0,1-10-4.13,13.07,13.07,0,0,1-3.21-9,12.64,12.64,0,0,1,4.13-9.93,13.16,13.16,0,0,1,9-3.17q6.33,0,10,4.08a12.9,12.9,0,0,1,3.17,9,12.73,12.73,0,0,1-4.13,10A13.06,13.06,0,0,1,189.64,162.1Zm-.1-20.31a4,4,0,0,0-3.55,1.88,9.44,9.44,0,0,0-1.25,5.27q0,7.2,4.9,7.21t4.89-7.25Q194.53,141.79,189.54,141.79Z" transform="translate(-58.62 -93.62)"/><path class="cls-1" d="M369.28,155.71a3.61,3.61,0,0,1,5-2l28.92,14.37a4.45,4.45,0,0,1,2.12,5.5l-1.28,3.25a3.62,3.62,0,0,1-5.05,1.94l-28.92-14.36A4.46,4.46,0,0,1,368,159Z" transform="translate(-58.62 -93.62)"/><path class="cls-1" d="M366.32,152.87a1.77,1.77,0,0,1,2.44-1,2.18,2.18,0,0,1,1,2.71l-1.91,4.83a1.77,1.77,0,0,1-2.43,1,2.18,2.18,0,0,1-1-2.71Z" transform="translate(-58.62 -93.62)"/><path class="cls-1" d="M405.81,172.48a1.77,1.77,0,0,1,2.44-1,2.17,2.17,0,0,1,1,2.7L407.31,179a1.77,1.77,0,0,1-2.44,1,2.17,2.17,0,0,1-1-2.71Z" transform="translate(-58.62 -93.62)"/><line class="cls-3" x1="355.6" y1="88.48" x2="357.29" y2="84.21"/><line class="cls-3" x1="361.73" y1="91.53" x2="363.42" y2="87.25"/><line class="cls-3" x1="368.26" y1="95.62" x2="370.51" y2="89.92"/><polygon class="cls-1" points="350.48 80.83 366.14 88.6 364.45 92.88 348.8 85.1 350.48 80.83"/><polygon class="cls-1" points="372.86 95.77 373.71 93.63 370.79 89.21 366.14 88.6 364.45 92.88 367.98 96.33 372.86 95.77"/><polygon class="cls-1" points="2.85 1.38 1.38 3.15 2.75 8.26 6.97 10.3 9.92 6.78 7.67 2.39 2.85 1.38"/><polygon class="cls-1" points="19.37 22.63 6.97 10.3 9.92 6.78 22.32 19.1 19.37 22.63"/></svg>