<svg id="Layer_1" data-name="Layer 1" xmlns="http://www.w3.org/2000/svg" viewBox="0 0 308.38 116.21"><defs><style>.cls-1,.cls-2,.cls-3,.cls-4,.cls-5,.cls-6{fill:none;stroke-miterlimit:10;}.cls-1{stroke:#e76f51;}.cls-1,.cls-5,.cls-6{stroke-width:5px;}.cls-2,.cls-3{stroke:#264653;}.cls-2,.cls-4{stroke-width:2.5px;}.cls-3{stroke-width:2px;}.cls-4{stroke:#2a9d8f;}.cls-5{stroke:#5892a3;}.cls-6{stroke:#f0b073;}</style></defs><title>playlist-icon</title><path class="cls-1" d="M318,307s22.85,43,50.17,26,29.31-87,68.56-53S474,311,474,311" transform="translate(-245.89 -248.39)"/><path class="cls-2" d="M315,302.92a3.65,3.65,0,0,1-5.43-.23l-14.93-17.57a4.41,4.41,0,0,1,.24-5.87l.61-.61a3.65,3.65,0,0,1,5.43.23l14.93,17.57a4.41,4.41,0,0,1-.24,5.87Z" transform="translate(-245.89 -248.39)"/><path class="cls-3" d="M315.87,306.14c-.78.78-1.85.91-2.37.3a2,2,0,0,1,.47-2.53l2.19-2.18c.78-.78,1.84-.91,2.37-.3a2,2,0,0,1-.47,2.53Z" transform="translate(-245.89 -248.39)"/><path class="cls-2" d="M293.85,280.25c-.78.77-1.84.91-2.36.29A2,2,0,0,1,292,278l2.19-2.18c.78-.77,1.85-.9,2.37-.29a2,2,0,0,1-.47,2.53Z" transform="translate(-245.89 -248.39)"/><line class="cls-4" x1="44.62" y1="22.82" x2="42.11" y2="25.32"/><line class="cls-4" x1="41.2" y1="18.81" x2="38.69" y2="21.31"/><line class="cls-4" x1="37.83" y1="13.92" x2="34.48" y2="17.26"/><polygon class="cls-2" points="34.6 12.41 33.34 13.67 34.06 17.68 37.17 19.52 39.69 17.02 38.24 13.51 34.6 12.41"/><polygon class="cls-2" points="45.9 29.79 37.17 19.52 39.69 17.02 48.41 27.29 45.9 29.79"/><path class="cls-2" d="M478.63,315.43A3.64,3.64,0,0,1,484,315l16.89,15.71a4.4,4.4,0,0,1,.44,5.85l-.54.68a3.64,3.64,0,0,1-5.41.41L478.53,322a4.41,4.41,0,0,1-.44-5.86Z" transform="translate(-245.89 -248.39)"/><path class="cls-3" d="M477.36,312.33c.68-.86,1.72-1.12,2.31-.57a2,2,0,0,1-.17,2.57l-1.92,2.42c-.68.86-1.72,1.12-2.31.57a2,2,0,0,1,.17-2.57Z" transform="translate(-245.89 -248.39)"/><path class="cls-2" d="M502.24,335.48c.69-.86,1.73-1.12,2.32-.57a2,2,0,0,1-.17,2.57l-1.92,2.42c-.68.86-1.73,1.11-2.32.57a2,2,0,0,1,.17-2.57Z" transform="translate(-245.89 -248.39)"/><line class="cls-4" x1="260.73" y1="95.68" x2="262.93" y2="92.9"/><line class="cls-4" x1="264.59" y1="99.27" x2="266.79" y2="96.49"/><line class="cls-4" x1="268.51" y1="103.73" x2="271.45" y2="100.02"/><polygon class="cls-2" points="271.89 104.85 273 103.46 271.82 99.56 268.51 98.09 266.31 100.87 268.15 104.19 271.89 104.85"/><polygon class="cls-2" points="258.64 88.91 268.51 98.09 266.31 100.87 256.44 91.69 258.64 88.91"/><path class="cls-5" d="M352,296s22.85,43,50.17,26,29.31-87,68.56-53S508,300,508,300" transform="translate(-245.89 -248.39)"/><path class="cls-2" d="M512.63,304.43A3.64,3.64,0,0,1,518,304l16.89,15.71a4.4,4.4,0,0,1,.44,5.85l-.54.68a3.64,3.64,0,0,1-5.41.41L512.53,311a4.41,4.41,0,0,1-.44-5.86Z" transform="translate(-245.89 -248.39)"/><path class="cls-3" d="M511.36,301.33c.68-.86,1.72-1.12,2.31-.57a2,2,0,0,1-.17,2.57l-1.92,2.42c-.68.86-1.72,1.12-2.31.57a2,2,0,0,1,.17-2.57Z" transform="translate(-245.89 -248.39)"/><path class="cls-2" d="M536.24,324.48c.69-.86,1.73-1.12,2.32-.57a2,2,0,0,1-.17,2.57l-1.92,2.42c-.68.86-1.73,1.11-2.32.57a2,2,0,0,1,.17-2.57Z" transform="translate(-245.89 -248.39)"/><line class="cls-4" x1="294.73" y1="84.68" x2="296.93" y2="81.9"/><line class="cls-4" x1="298.59" y1="88.27" x2="300.79" y2="85.49"/><line class="cls-4" x1="302.51" y1="92.73" x2="305.45" y2="89.02"/><polygon class="cls-2" points="305.89 93.85 307 92.46 305.82 88.56 302.51 87.09 300.31 89.87 302.15 93.19 305.89 93.85"/><polygon class="cls-2" points="292.64 77.91 302.51 87.09 300.31 89.87 290.44 80.69 292.64 77.91"/><path class="cls-6" d="M286,317s22.85,43,50.17,26,29.31-87,68.56-53S442,321,442,321" transform="translate(-245.89 -248.39)"/><path class="cls-2" d="M283,311.92a3.65,3.65,0,0,1-5.43-.23l-14.93-17.57a4.41,4.41,0,0,1,.24-5.87l.61-.61a3.65,3.65,0,0,1,5.43.23l14.93,17.57a4.41,4.41,0,0,1-.24,5.87Z" transform="translate(-245.89 -248.39)"/><path class="cls-3" d="M283.87,315.14c-.78.78-1.85.91-2.37.3a2,2,0,0,1,.47-2.53l2.19-2.18c.78-.78,1.84-.91,2.37-.3a2,2,0,0,1-.47,2.53Z" transform="translate(-245.89 -248.39)"/><path class="cls-2" d="M261.85,289.25c-.78.77-1.84.91-2.36.29A2,2,0,0,1,260,287l2.19-2.18c.78-.77,1.85-.9,2.37-.29a2,2,0,0,1-.47,2.53Z" transform="translate(-245.89 -248.39)"/><line class="cls-4" x1="12.62" y1="31.82" x2="10.11" y2="34.32"/><line class="cls-4" x1="9.2" y1="27.81" x2="6.69" y2="30.31"/><line class="cls-4" x1="5.83" y1="22.92" x2="2.48" y2="26.26"/><polygon class="cls-2" points="2.6 21.41 1.34 22.67 2.06 26.68 5.17 28.52 7.68 26.02 6.25 22.51 2.6 21.41"/><polygon class="cls-2" points="13.9 38.79 5.17 28.52 7.68 26.02 16.41 36.29 13.9 38.79"/><path class="cls-2" d="M447.63,325.43A3.64,3.64,0,0,1,453,325l16.89,15.71a4.4,4.4,0,0,1,.44,5.85l-.54.68a3.64,3.64,0,0,1-5.41.41L447.53,332a4.41,4.41,0,0,1-.44-5.86Z" transform="translate(-245.89 -248.39)"/><path class="cls-3" d="M446.36,322.33c.68-.86,1.72-1.12,2.31-.57a2,2,0,0,1-.17,2.57l-1.92,2.42c-.68.86-1.72,1.12-2.31.57a2,2,0,0,1,.17-2.57Z" transform="translate(-245.89 -248.39)"/><path class="cls-2" d="M471.24,345.48c.69-.86,1.73-1.12,2.32-.57a2,2,0,0,1-.17,2.57l-1.92,2.42c-.68.86-1.73,1.11-2.32.57a2,2,0,0,1,.17-2.57Z" transform="translate(-245.89 -248.39)"/><line class="cls-4" x1="229.73" y1="105.68" x2="231.93" y2="102.9"/><line class="cls-4" x1="233.59" y1="109.27" x2="235.79" y2="106.49"/><line class="cls-4" x1="237.51" y1="113.73" x2="240.45" y2="110.02"/><polygon class="cls-2" points="240.89 114.85 242 113.46 240.82 109.56 237.51 108.09 235.31 110.87 237.15 114.19 240.89 114.85"/><polygon class="cls-2" points="227.64 98.91 237.51 108.09 235.31 110.87 225.44 101.69 227.64 98.91"/><path class="cls-2" d="M349,291.92a3.65,3.65,0,0,1-5.43-.23l-14.93-17.57a4.41,4.41,0,0,1,.24-5.87l.61-.61a3.65,3.65,0,0,1,5.43.23l14.93,17.57a4.41,4.41,0,0,1-.24,5.87Z" transform="translate(-245.89 -248.39)"/><path class="cls-3" d="M349.87,295.14c-.78.78-1.85.91-2.37.3a2,2,0,0,1,.47-2.53l2.19-2.18c.78-.78,1.84-.91,2.37-.3a2,2,0,0,1-.47,2.53Z" transform="translate(-245.89 -248.39)"/><path class="cls-2" d="M327.85,269.25c-.78.77-1.84.91-2.36.29A2,2,0,0,1,326,267l2.19-2.18c.78-.77,1.85-.9,2.37-.29a2,2,0,0,1-.47,2.53Z" transform="translate(-245.89 -248.39)"/><line class="cls-4" x1="78.62" y1="11.82" x2="76.11" y2="14.32"/><line class="cls-4" x1="75.2" y1="7.81" x2="72.69" y2="10.31"/><line class="cls-4" x1="71.83" y1="2.92" x2="68.48" y2="6.26"/><polygon class="cls-2" points="68.61 1.41 67.34 2.67 68.06 6.68 71.17 8.52 73.69 6.02 72.25 2.51 68.61 1.41"/><polygon class="cls-2" points="79.9 18.79 71.17 8.52 73.69 6.02 82.42 16.29 79.9 18.79"/></svg>